<?xml version="1.0" encoding="utf-8"?>
<!-- Generator: Adobe Illustrator 24.0.0, SVG Export Plug-In . SVG Version: 6.00 Build 0)  -->
<svg version="1.1" id="圖層_1" xmlns="http://www.w3.org/2000/svg" xmlns:xlink="http://www.w3.org/1999/xlink" x="0px" y="0px"
	 viewBox="0 0 25 25" style="enable-background:new 0 0 25 25;" xml:space="preserve">
<style type="text/css">
	.st0{display:none;}
	.st1{display:inline;fill-rule:evenodd;clip-rule:evenodd;}
	.st2{display:inline;}
	.st3{fill:#595959;}
	.st4{fill:none;stroke:#595959;stroke-width:0.7725;stroke-linecap:round;stroke-miterlimit:10;}
	.st5{fill:#FFFFFF;}
	.st6{fill:none;stroke:#595959;stroke-width:2.06;stroke-linecap:round;stroke-linejoin:round;stroke-miterlimit:10;}
	.st7{fill:none;stroke:#595959;stroke-width:1.8528;stroke-miterlimit:10;}
	.st8{display:inline;fill-rule:evenodd;clip-rule:evenodd;fill:#FFFFFF;}
	.st9{fill:none;stroke:#FFFFFF;stroke-width:1.545;stroke-miterlimit:10;}
	.st10{fill:none;stroke:#CDE081;stroke-width:1.545;stroke-miterlimit:10;}
	.st11{display:inline;fill:none;stroke:#FFFFFF;stroke-width:1.5784;stroke-miterlimit:10;}
	.st12{display:inline;fill:none;stroke:#CDE081;stroke-width:1.545;stroke-miterlimit:10;}
	.st13{fill:none;stroke:#14A028;stroke-width:1.545;stroke-miterlimit:10;}
</style>
<g id="圖層_17" class="st0">
	<rect y="0" class="st1" width="25" height="25.2"/>
</g>
<g id="reply" class="st0">
	<g class="st2">
		<path class="st3" d="M17.5,12.4H15c-0.3,0-0.6,0.3-0.4,0.6l4,6.4c0.2,0.3,0.6,0.3,0.8,0l4-6.4c0.2-0.3,0-0.6-0.4-0.6h-2.5"/>
		<g>
			<path class="st3" d="M10.8,21.6c-4.9-0.2-8.8-4.4-8.7-9.3c0.1-4.7,4.1-8.7,8.8-8.8c5.1-0.1,9.4,4,9.4,9.1h-2.5
				c0-3.7-3-6.7-6.7-6.6c-3.5,0.1-6.5,3-6.5,6.5c-0.1,3.6,2.7,6.5,6.2,6.7c0.2,0,0.4,0.2,0.4,0.4v1.7C11.2,21.4,11,21.6,10.8,21.6z"
				/>
		</g>
	</g>
</g>
<g id="um" class="st0">
	<g class="st2">
		<path class="st3" d="M17.2,20.2h-11c-1.1,0-2-0.9-2-2v-13c0-1.1,0.9-2,2-2h11c1.1,0,2,0.9,2,2v13C19.2,19.3,18.3,20.2,17.2,20.2z"
			/>
		<path class="st4" d="M20.8,5.2v14.5c0,1.1-0.9,2-2,2H6.4"/>
		<g>
			<path class="st5" d="M13.1,16.2c0,0.7-0.5,1.2-1.2,1.2s-1.2-0.5-1.2-1.2v-4.6h-0.2c-0.5,0-0.9-0.4-0.9-0.9s0.4-0.9,0.9-0.9h1.4
				c0.7,0,1.2,0.6,1.2,1.2V16.2z M11.9,8.5c-0.8,0-1.4-0.6-1.4-1.4s0.6-1.4,1.4-1.4c0.8,0,1.4,0.6,1.4,1.4S12.7,8.5,11.9,8.5z"/>
		</g>
	</g>
</g>
<g id="history" class="st0">
	<g class="st2">
		<path class="st3" d="M7.5,12.5h2.3c0.3,0,0.5,0.3,0.4,0.6l-3.7,6c-0.2,0.3-0.6,0.3-0.7,0l-3.7-6c-0.2-0.3,0-0.6,0.4-0.6h2.3"/>
		<polyline class="st6" points="17.2,14.7 13.4,12.8 13.4,8.4 		"/>
		<path class="st3" d="M14.1,3.4c-5.1-0.1-9.4,4-9.4,9.1h2.5c0-3.7,3-6.7,6.7-6.6c3.5,0.1,6.5,3,6.5,6.5c0.1,3.7-2.9,6.7-6.6,6.7
			l0,0c0,0-0.9,0-1.8-0.3c-0.2-0.1-0.4,0-0.5,0.2L11,20.6c-0.1,0.2,0,0.5,0.2,0.5c1.2,0.4,2.4,0.5,2.6,0.5l0,0
			c5.1,0,9.2-4.2,9.1-9.4C22.8,7.5,18.9,3.5,14.1,3.4z"/>
	</g>
</g>
<g id="pdf" class="st0">
	<g class="st2">
		<path class="st3" d="M19.2,21.3H5.8c-1.1,0-2.1-0.9-2.1-2.1V5.8c0-1.1,0.9-2.1,2.1-2.1h13.4c1.1,0,2.1,0.9,2.1,2.1v13.4
			C21.3,20.3,20.3,21.3,19.2,21.3z"/>
		<g>
			<path class="st5" d="M5.5,15.2v-0.1V9.9V9.8h0.1h1.9C8,9.7,8.3,9.8,8.6,10s0.5,0.4,0.7,0.7s0.2,0.6,0.2,0.9c0,0.4-0.1,0.7-0.2,1
				c-0.2,0.3-0.4,0.5-0.7,0.7s-0.7,0.2-1.1,0.2h-1v1.7v0.1H6.4L5.5,15.2C5.6,15.3,5.5,15.3,5.5,15.2z M7.4,12.6c0.3,0,0.5,0,0.6-0.1
				c0.2-0.1,0.3-0.2,0.4-0.4c0.1-0.2,0.1-0.3,0.1-0.5s0-0.4-0.1-0.5c-0.1-0.2-0.2-0.3-0.4-0.4c-0.2-0.1-0.4-0.1-0.6-0.1H6.5v2H7.4z"
				/>
			<path class="st5" d="M10.4,15.2v-0.1V9.9V9.8h0.1h1.8c0.6,0,1,0.1,1.4,0.3s0.7,0.5,0.9,1c0.2,0.4,0.3,0.9,0.3,1.5
				s-0.1,1.1-0.3,1.5s-0.5,0.7-0.9,1c-0.4,0.2-0.9,0.3-1.5,0.3h-1.7C10.5,15.3,10.5,15.3,10.4,15.2z M12.2,14.4c0.4,0,0.7-0.1,1-0.2
				c0.3-0.1,0.5-0.4,0.6-0.6c0.1-0.3,0.2-0.6,0.2-1.1c0-0.4-0.1-0.8-0.2-1.1c-0.1-0.3-0.3-0.5-0.6-0.6s-0.6-0.2-0.9-0.2h-0.9v3.8
				C11.4,14.4,12.2,14.4,12.2,14.4z"/>
			<path class="st5" d="M16,15.2v-0.1V9.9V9.8h0.1h3.3h0.1v0.1l0,0l-0.1,0.5c0,0,0,0.1-0.1,0.1h-0.1H17V12h2.2h0.1v0.1v0.5v0.1h-0.1
				H17v2.2V15h-0.1h-0.7C16.1,15.3,16,15.3,16,15.2z"/>
		</g>
	</g>
</g>
<g id="language" class="st0">
	<g class="st2">
		<g>
			<path class="st3" d="M4,21.8c-0.2,0-0.4-0.1-0.6-0.2c-0.2-0.2-0.3-0.5-0.2-0.8l1.2-3.6c-0.8-1.4-1.2-3-1.2-4.6
				c0-5.1,4.2-9.3,9.3-9.3s9.3,4.2,9.3,9.3s-4.2,9.3-9.3,9.3c-1.6,0-3.2-0.4-4.6-1.2l-3.6,1.2C4.2,21.8,4.1,21.8,4,21.8z M8,18.8
				c0.2,0,0.3,0,0.4,0.1c1.2,0.8,2.7,1.2,4.1,1.2c4.2,0,7.7-3.4,7.7-7.6s-3.4-7.6-7.7-7.6s-7.7,3.4-7.7,7.6c0,1.4,0.4,2.8,1.2,4.1
				c0.1,0.2,0.2,0.5,0.1,0.7l-0.8,2.4l2.4-0.8C7.8,18.8,7.9,18.8,8,18.8z"/>
		</g>
		<g>
			<path class="st3" d="M12.5,21.8c-2.7,0-4.8-4-4.8-9.3s2.1-9.3,4.8-9.3s4.8,4,4.8,9.3S15.3,21.8,12.5,21.8z M12.5,4.9
				C11,4.9,9.4,8,9.4,12.5s1.7,7.6,3.1,7.6c1.5,0,3.1-3.1,3.1-7.6C15.7,8,14,4.9,12.5,4.9z"/>
		</g>
		<g>
			<path class="st3" d="M12.5,10.5c-3,0-5.9-0.7-7.6-1.9C4.6,8.3,4.5,7.8,4.7,7.4C5,7.1,5.5,7,5.9,7.2c1.4,1,4,1.6,6.6,1.6
				c2.7,0,5.2-0.6,6.6-1.6C19.5,6.9,20,7,20.2,7.4c0.3,0.4,0.2,0.9-0.2,1.1C18.4,9.8,15.6,10.5,12.5,10.5z"/>
		</g>
		<g>
			<path class="st3" d="M5.3,18c-0.2,0-0.5-0.1-0.7-0.3c-0.3-0.4-0.2-0.9,0.2-1.1c1.7-1.3,4.6-2,7.7-2c3,0,5.9,0.7,7.6,1.9
				c0.4,0.3,0.5,0.8,0.2,1.1c-0.3,0.4-0.8,0.5-1.1,0.2c-1.4-1-4-1.6-6.6-1.6c-2.8,0-5.3,0.7-6.7,1.7C5.6,18,5.5,18,5.3,18z"/>
		</g>
	</g>
</g>
<g id="color" class="st0">
	<g class="st2">
		<g>
			<path class="st3" d="M12.5,21.8c-5.1,0-9.3-4.2-9.3-9.3s4.2-9.3,9.3-9.3s9.3,4.2,9.3,9.3S17.6,21.8,12.5,21.8z M12.5,5.4
				c-3.9,0-7.1,3.2-7.1,7.1s3.2,7.1,7.1,7.1s7.1-3.2,7.1-7.1S16.4,5.4,12.5,5.4z"/>
		</g>
		<g>
			<path class="st3" d="M12.5,20.7c-4.5,0-8.2-3.7-8.2-8.2S8,4.3,12.5,4.3"/>
		</g>
	</g>
</g>
<g id="zoom_x5F_in" class="st0">
	<g class="st2">
		<polyline class="st7" points="5,9.3 5,5.1 9.3,5.1 		"/>
		<polyline class="st7" points="20,9.3 20,5.1 15.7,5.1 		"/>
		<polyline class="st7" points="20,15.7 20,19.9 15.7,19.9 		"/>
		<polyline class="st7" points="5,15.7 5,19.9 9.3,19.9 		"/>
	</g>
</g>
<g id="zoom_x5F_out" class="st0">
	<g class="st2">
		<polyline class="st7" points="9.3,5.1 9.3,9.3 5,9.3 		"/>
		<polyline class="st7" points="15.7,5.1 15.7,9.3 20,9.3 		"/>
		<polyline class="st7" points="15.7,19.9 15.7,15.7 20,15.7 		"/>
		<polyline class="st7" points="9.3,19.9 9.3,15.7 5,15.7 		"/>
	</g>
</g>
<g id="info" class="st0">
	<path class="st8" d="M12.5,4.8c-4.3,0-7.8,3.5-7.8,7.7c0,4.3,3.5,7.8,7.8,7.8s7.7-3.5,7.7-7.8C20.3,8.2,16.8,4.8,12.5,4.8z
		 M14.2,17.4c0,0.7-0.6,1.3-1.3,1.3s-1.3-0.6-1.3-1.3v-5.2h-0.3c-0.5,0-0.9-0.4-0.9-0.9s0.4-0.9,0.9-0.9h1.6l0,0
		c0.7,0,1.2,0.6,1.2,1.3v5.7H14.2z M12.9,9.4c-0.8,0-1.5-0.7-1.5-1.5s0.7-1.5,1.5-1.5s1.5,0.7,1.5,1.5S13.8,9.4,12.9,9.4z"/>
</g>
<g id="_x34_divisions_x5F_1" class="st0">
	<g class="st2">
		<rect x="5" y="14.4" class="st9" width="5.6" height="5.6"/>
		<rect x="14.4" y="14.4" class="st9" width="5.6" height="5.6"/>
		<rect x="5" y="5" class="st9" width="5.6" height="5.6"/>
		<rect x="14.4" y="5" class="st9" width="5.6" height="5.6"/>
	</g>
</g>
<g id="_x34_divisions_x5F_2" class="st0">
	<g class="st2">
		<rect x="5" y="14.4" class="st10" width="5.6" height="5.6"/>
		<rect x="14.4" y="14.4" class="st10" width="5.6" height="5.6"/>
		<rect x="5" y="5" class="st10" width="5.6" height="5.6"/>
		<rect x="14.4" y="5" class="st10" width="5.6" height="5.6"/>
	</g>
</g>
<g id="_x32_divisions_x5F_1" class="st0">
	<g class="st2">
		<rect x="5" y="14.4" class="st9" width="14.9" height="5.6"/>
		<rect x="5" y="5" class="st9" width="14.9" height="5.6"/>
	</g>
</g>
<g id="_x31_divisions_x5F_1" class="st0">
	<rect x="5" y="5" class="st11" width="14.9" height="14.9"/>
</g>
<g id="_x31_divisions_x5F_2" class="st0">
	<rect x="5" y="5" class="st12" width="14.9" height="14.9"/>
</g>
<g>
	<rect x="5" y="14.4" class="st13" width="14.9" height="5.6"/>
	<rect x="5" y="5" class="st13" width="14.9" height="5.6"/>
</g>
</svg>
