<svg t="1609826249494" class="icon" viewBox="0 0 1024 1024" version="1.1" xmlns="http://www.w3.org/2000/svg" p-id="10703" width="200" height="200"><path d="M0 0m256 0l512 0q256 0 256 256l0 512q0 256-256 256l-512 0q-256 0-256-256l0-512q0-256 256-256Z" fill="#ffffff" opacity=".1" p-id="10704" data-spm-anchor-id="a313x.7781069.0.i34" class="selected"></path><path d="M446.8992 526.7712a15.0272 15.0272 0 0 1-15.0528-15.0784 80.5376 80.5376 0 0 1 80.4608-80.4608 15.0272 15.0272 0 1 1 0 30.1312 50.4064 50.4064 0 0 0-50.3552 50.3296 15.0272 15.0272 0 0 1-15.0528 15.0784z" fill="#ffffff" p-id="10705" data-spm-anchor-id="a313x.7781069.0.i38" class="selected"></path><path d="M512.3072 683.4176a171.9296 171.9296 0 0 1-171.7248-171.7248 171.9296 171.9296 0 0 1 171.7248-171.7248 171.9296 171.9296 0 0 1 171.7248 171.7248 171.9296 171.9296 0 0 1-171.7248 171.7248z m0-298.24a126.6688 126.6688 0 0 0-126.5408 126.5152 126.6688 126.6688 0 0 0 126.5408 126.5408 126.6688 126.6688 0 0 0 126.5408-126.5408 126.6688 126.6688 0 0 0-126.5408-126.5408z" fill="#ffffff" p-id="10706" data-spm-anchor-id="a313x.7781069.0.i37" class="selected"></path><path d="M512.3072 799.4112c-158.6432 0-287.7184-129.0752-287.7184-287.7184 0-158.6432 129.0752-287.6928 287.7184-287.6928 158.6432 0 287.6928 129.0496 287.6928 287.6928 0 158.6432-129.0496 287.7184-287.6928 287.7184z m0-515.1744c-125.4144 0-227.456 102.0672-227.456 227.456 0 125.4144 102.0416 227.456 227.456 227.456 125.3888 0 227.456-102.0416 227.456-227.456 0-125.3888-102.0672-227.456-227.456-227.456z" fill="#ffffff" p-id="10707" data-spm-anchor-id="a313x.7781069.0.i35" class="selected"></path></svg>