<?xml version="1.0" encoding="utf-8"?>
<!-- Generator: Adobe Illustrator 24.0.0, SVG Export Plug-In . SVG Version: 6.00 Build 0)  -->
<svg version="1.1" xmlns="http://www.w3.org/2000/svg" xmlns:xlink="http://www.w3.org/1999/xlink" x="0px" y="0px"
	 viewBox="0 0 50 50" style="enable-background:new 0 0 50 50;" xml:space="preserve">
<style type="text/css">
	.st0{display:none;}
	
		.st1{display:inline;fill:#595959;stroke:#FFFFFF;stroke-width:2;stroke-linecap:round;stroke-linejoin:bevel;stroke-miterlimit:10;}
	.st2{fill:#595959;stroke:#FFFFFF;stroke-width:2;stroke-linecap:round;stroke-linejoin:bevel;stroke-miterlimit:10;}
</style>
<g id="side" class="st0">
	<path class="st1" d="M47.2,33.6c0,1.5-1.1,1.5-1.1,1.5l-42.2,0c-1.3,0-1.2-1.5-1.2-1.5L2.6,20.8c0-1.3,1.3-1.4,1.3-1.4
		c20.1-2.4,36.2,7.7,36.2,7.7c0.3-1.9,2.1-10.6,2.1-10.6c0.1-0.6,0.5-0.7,0.5-0.7c1-0.6,2.7-0.9,2.7-0.9c0.7,0,0.7,0.7,0.7,0.7
		c1.2,9.7,1.2,14.6,1.2,14.6L47.2,33.6z"/>
</g>
<g id="top">
	<path class="st2" d="M43.3,9.1l2.5-0.3c0,0,0.6,0,0.8,0.6c0,0,1.3,4.8,0.6,16.5c0,0,0.1,0.7-0.6,0.9c0,0-0.6,0.2-1.3,0.3
		c0,0,0.1,4.6-1.4,12.5c0,0,0,0.9-1.3,1.1c0,0-15.5,2.7-36.2,1.2c0,0-2.7-0.1-3.1-2.7c0,0-1.4-14.9-0.3-27.2C3,12.2,2.9,8,6.4,8
		C6.4,8,29,6.4,43.3,9.1z"/>
</g>
<g id="front" class="st0">
	<path class="st1" d="M7.5,21c0,0-0.1-0.7,0.5-0.8l3.4-1c0,0,0.2-0.1,0.4-0.1h0.6v-2.6c0,0-0.1-1.1,1-1.1H25c0,0,1,0,1.2,1.1
		l0.4,2.3L38.4,19c0,0,0.2,0,0.4,0.1l2.9,0.8c0,0,0.9,0.4,0.9,1.4l-0.2,12.1c0,0-0.1,0.3-0.1,0.3l-0.7,0.7c0,0-0.1,0.2-0.6,0.2h-32
		c0,0-0.3,0.1-0.5-0.2l-0.5-0.5c0,0-0.3-0.1-0.2-0.5L7.5,21z"/>
</g>
</svg>
