<?xml version="1.0" encoding="utf-8"?>
<!-- Generator: Adobe Illustrator 24.0.0, SVG Export Plug-In . SVG Version: 6.00 Build 0)  -->
<svg version="1.1" id="圖層_1" xmlns="http://www.w3.org/2000/svg" xmlns:xlink="http://www.w3.org/1999/xlink" x="0px" y="0px"
	 viewBox="0 0 100 100" style="enable-background:new 0 0 100 100;" xml:space="preserve">
<style type="text/css">
	.st0{fill:none;stroke:#5F5F5F;stroke-linecap:round;stroke-linejoin:round;stroke-miterlimit:10;}
	.st1{fill-rule:evenodd;clip-rule:evenodd;fill:#FFFFFF;stroke:#5F5F5F;stroke-miterlimit:10;}
	.st2{fill-rule:evenodd;clip-rule:evenodd;fill:#5F5F5F;}
</style>
<g>
	<path class="st0" d="M55.1,59.5H74c0,0,5.4,0.4,5.4-14.1c0,0-0.5-10-5.8-10.3H54.9"/>
	<path class="st0" d="M56,64.8"/>
	<path class="st0" d="M42.1,62.1h9.1c0,0,5.5,1,6.1-14.6c0,0,0.5-14.1-6.3-14.5H42"/>
	<path class="st0" d="M46.8,62.1c0,0,4.8-0.4,4.9-15.8c0,0-0.1-11.6-4.6-13.3"/>
	<path class="st0" d="M16.3,68.4h20.6c0,0,3.2,0,5.3-6.3c1.1-3.2,1.9-8.2,1.9-15.6c0,0-0.3-18.6-7.2-19.8H16.3"/>
	<ellipse class="st0" cx="14.7" cy="47.6" rx="8.2" ry="20.9"/>
	<g>
		<ellipse class="st0" cx="14.6" cy="47.6" rx="4.5" ry="16.5"/>
		<path class="st0" d="M18.3,57c0,0-3.2,3.6-3.7-9.1c0,0,0-12.8,3.7-9.8"/>
	</g>
	<path class="st1" d="M74.9,56.3v-6.9c0-4,3.2-7.2,7.2-7.2s7.2,3.2,7.2,7.2v6.9"/>
	<path class="st1" d="M91,73.3H72.8c-1.4,0-2.5-1.1-2.5-2.5v-13c0-1.4,1.1-2.5,2.5-2.5H91c1.4,0,2.5,1.1,2.5,2.5v13
		C93.5,72.2,92.4,73.3,91,73.3z"/>
	<path class="st2" d="M81.9,59.8c-1.6,0-3,1.3-3,3c0,1.2,0.7,2.3,1.8,2.7v2c0,0.7,0.5,1.2,1.2,1.2c0.7,0,1.2-0.5,1.2-1.2v-2
		c1.1-0.5,1.8-1.5,1.8-2.7C84.9,61.2,83.5,59.8,81.9,59.8L81.9,59.8z"/>
</g>
</svg>
