<?xml version="1.0" encoding="utf-8"?>
<!-- Generator: Adobe Illustrator 24.0.0, SVG Export Plug-In . SVG Version: 6.00 Build 0)  -->
<svg version="1.1" id="圖層_1" xmlns="http://www.w3.org/2000/svg" xmlns:xlink="http://www.w3.org/1999/xlink" x="0px" y="0px"
	 viewBox="0 0 1000 376" style="enable-background:new 0 0 1000 376;" xml:space="preserve">
<style type="text/css">
	.st0{fill-rule:evenodd;clip-rule:evenodd;fill:#221E1F;}
	.st1{fill-rule:evenodd;clip-rule:evenodd;fill:#36B34A;}
</style>
<g>
	<path class="st0" d="M796.59,192.92c-10.69-22.6-31.23-40.28-75.21-40.28c-58.74,0-84.63,34.1-84.63,87.55
		c0,51.75,29.97,79.67,85.05,79.67c41.11,0,78.48-15.58,83-55.44H749.3c-1.61,15.22-11.48,23.42-27.09,23.42
		c-30.4,0-30.4-30-30.4-38.22h113.81C805.63,221.67,803.58,206.47,796.59,192.92z M692.62,217.17c0.41-7.4,2.89-33.27,28.76-33.27
		c25.2,0,27.45,22.92,28.32,32.5c0,0.27,0.02,0.5,0.02,0.77H692.62z"/>
	<path class="st0" d="M598.13,319.07c20.12,0,29.97-1.65,41.69-2.89v-37.37c-11.29,0.83-13.36,0.83-17.9,0.83
		c-22.96,0-22.96-8.65-22.96-27.97v-62.25h42.11v-31.45h-41.68V89.85l-57.97,22.62v80.85v79.32
		C541.42,303.03,550.84,319.07,598.13,319.07z"/>
	<polygon class="st0" points="871.77,315.76 871.77,228.26 928.49,315.76 1000,315.76 937.95,224.57 995.7,158.45 929.94,158.45 
		871.77,227.84 871.77,95.4 813.78,95.4 813.84,315.76 	"/>
	<path class="st1" d="M505.58,139.82c-16.01-46.47-78.34-83.68-152.4-83.68c-74.07,0-136.39,37.22-152.41,83.68h47.48
		c20.64-25.59,58.23-45.52,105.66-45.52c47.43,0,85.01,19.93,105.65,45.52H505.58z"/>
	<rect x="193.55" y="157.36" class="st0" width="60" height="156.85"/>
	<polygon class="st0" points="355.61,266.28 323.95,157.36 258.96,157.36 320.2,314.2 385.63,314.2 446.42,157.36 389.8,157.36 	"/>
	<polygon class="st0" points="96.65,266.28 65,157.36 0,157.36 61.24,314.2 126.68,314.2 187.47,157.36 130.85,157.36 	"/>
	<rect x="452.28" y="157.36" class="st0" width="60.39" height="156.85"/>
</g>
</svg>
