<?xml version="1.0" encoding="utf-8"?>
<!-- Generator: Adobe Illustrator 24.0.0, SVG Export Plug-In . SVG Version: 6.00 Build 0)  -->
<svg version="1.1" id="圖層_1" xmlns="http://www.w3.org/2000/svg" xmlns:xlink="http://www.w3.org/1999/xlink" x="0px" y="0px"
	 viewBox="0 0 1000 376" style="enable-background:new 0 0 1000 376;" xml:space="preserve">
<style type="text/css">
	.st0{fill-rule:evenodd;clip-rule:evenodd;fill:#FFFFFF;}
</style>
<g>
	<path class="st0" d="M796.6,192.9c-10.7-22.6-31.2-40.3-75.2-40.3c-58.7,0-84.6,34.1-84.6,87.6c0,51.8,30,79.7,85,79.7
		c41.1,0,78.5-15.6,83-55.4h-55.5c-1.6,15.2-11.5,23.4-27.1,23.4c-30.4,0-30.4-30-30.4-38.2h113.8
		C805.6,221.7,803.6,206.5,796.6,192.9z M692.6,217.2c0.4-7.4,2.9-33.3,28.8-33.3c25.2,0,27.5,22.9,28.3,32.5c0,0.3,0,0.5,0,0.8
		H692.6z"/>
	<path class="st0" d="M598.1,319.1c20.1,0,30-1.6,41.7-2.9v-37.4c-11.3,0.8-13.4,0.8-17.9,0.8c-23,0-23-8.6-23-28v-62.3h42.1V158
		h-41.7V89.8l-58,22.6v80.9v79.3C541.4,303,550.8,319.1,598.1,319.1z"/>
	<polygon class="st0" points="871.8,315.8 871.8,228.3 928.5,315.8 1000,315.8 938,224.6 995.7,158.4 929.9,158.4 871.8,227.8 
		871.8,95.4 813.8,95.4 813.8,315.8 	"/>
	<path class="st0" d="M505.6,139.8c-16-46.5-78.3-83.7-152.4-83.7c-74.1,0-136.4,37.2-152.4,83.7h47.5
		c20.6-25.6,58.2-45.5,105.7-45.5s85,19.9,105.6,45.5H505.6z"/>
	<rect x="193.6" y="157.4" class="st0" width="60" height="156.9"/>
	<polygon class="st0" points="355.6,266.3 324,157.4 259,157.4 320.2,314.2 385.6,314.2 446.4,157.4 389.8,157.4 	"/>
	<polygon class="st0" points="96.7,266.3 65,157.4 0,157.4 61.2,314.2 126.7,314.2 187.5,157.4 130.9,157.4 	"/>
	<rect x="452.3" y="157.4" class="st0" width="60.4" height="156.9"/>
</g>
</svg>
